<svg xmlns="http://www.w3.org/2000/svg" viewBox="0 0 2944 2944" fill="currentColor" role="img" aria-label="Seventh-day Adventist Church">
<g transform="translate(0.000000,2944.000000) scale(0.100000,-0.100000)"
fill="currentColor">
<path d="M13810 29419 c-26 -10 -71 -18 -109 -18 -35 -1 -105 -6 -155 -11 -50
-6 -127 -15 -171 -20 -44 -5 -168 -19 -275 -31 -345 -37 -302 -31 -725 -95
-93 -14 -181 -27 -195 -29 -65 -12 -300 -56 -340 -65 -633 -136 -755 -166
-1260 -313 -226 -66 -739 -233 -860 -280 -36 -14 -139 -53 -230 -87 -252 -95
-440 -171 -650 -265 -58 -25 -121 -52 -140 -60 -144 -54 -919 -447 -1230 -623
-306 -173 -395 -226 -590 -352 -41 -26 -113 -72 -160 -101 -47 -29 -141 -91
-208 -138 -68 -47 -147 -102 -175 -122 -191 -131 -374 -265 -568 -413 -60 -47
-339 -271 -448 -361 -27 -22 -73 -60 -103 -85 -146 -120 -236 -199 -377 -331
-85 -79 -196 -181 -245 -226 -100 -89 -524 -515 -602 -604 -27 -31 -120 -133
-207 -226 -87 -94 -170 -186 -185 -206 -15 -19 -61 -74 -102 -122 -41 -48 -88
-105 -105 -126 -16 -21 -91 -113 -165 -206 -125 -154 -162 -202 -273 -346
-228 -295 -592 -829 -778 -1142 -23 -38 -61 -99 -83 -135 -43 -66 -158 -267
-304 -530 -106 -191 -492 -966 -492 -987 0 -4 -27 -66 -59 -138 -33 -71 -76
-170 -96 -220 -134 -332 -164 -407 -217 -550 -56 -149 -212 -604 -242 -705 -8
-25 -23 -74 -33 -110 -169 -558 -344 -1272 -413 -1690 -28 -167 -62 -392 -70
-460 -5 -41 -13 -97 -18 -125 -25 -123 -49 -327 -72 -590 -6 -66 -15 -163 -21
-215 -5 -52 -13 -142 -18 -200 -4 -58 -15 -123 -25 -145 -15 -36 -16 -121 -14
-920 3 -788 5 -883 19 -910 10 -19 19 -69 23 -135 4 -58 11 -148 16 -200 5
-52 16 -167 24 -255 8 -88 19 -194 26 -235 50 -325 59 -390 64 -430 6 -58 54
-369 60 -395 3 -11 19 -94 36 -185 32 -170 106 -518 115 -541 3 -8 13 -54 24
-104 10 -49 35 -153 56 -230 20 -77 45 -171 55 -210 39 -149 156 -540 224
-750 114 -352 220 -641 354 -965 22 -52 56 -135 76 -185 21 -49 58 -135 83
-190 25 -55 54 -120 66 -145 17 -39 153 -321 214 -445 42 -84 214 -415 278
-535 107 -199 297 -525 422 -725 197 -312 551 -829 687 -1002 23 -28 70 -91
106 -140 74 -101 370 -474 409 -516 14 -16 34 -33 45 -39 16 -9 175 146 1235
1204 1190 1188 1217 1215 1266 1226 28 6 86 16 131 22 45 6 96 15 115 21 19 5
79 16 134 24 137 19 266 42 350 60 39 8 99 19 135 24 88 12 188 29 290 47 187
35 298 54 365 64 67 10 99 15 350 60 110 20 195 35 525 90 196 32 249 42 400
70 121 22 265 46 397 65 50 7 97 16 104 20 6 5 53 14 103 21 168 24 291 44
331 54 22 6 99 20 170 31 190 29 293 46 355 58 96 19 283 51 350 61 36 5 99
16 140 24 41 8 134 24 205 36 208 34 396 67 465 81 25 5 86 13 135 19 50 6
144 17 210 25 66 9 149 18 184 20 35 3 69 8 74 12 6 3 38 7 71 9 34 1 156 8
271 14 252 14 297 14 535 1 254 -14 525 -66 680 -131 41 -17 89 -36 105 -42
17 -7 57 -27 90 -46 269 -156 431 -427 451 -752 6 -96 5 -107 -14 -130 l-20
-25 -787 -5 c-764 -5 -787 -6 -801 -24 -12 -17 -14 -99 -14 -486 0 -462 0
-467 21 -486 20 -18 52 -19 799 -24 747 -5 779 -6 799 -24 l21 -19 0 -1509 c0
-1495 0 -1508 -20 -1528 -11 -11 -27 -20 -35 -20 -22 0 -63 47 -74 84 -16 55
-78 194 -100 224 -11 17 -21 34 -21 39 0 12 -86 147 -145 227 -72 97 -229 270
-321 352 -184 164 -425 321 -624 407 -36 15 -72 32 -81 36 -38 21 -211 84
-284 103 -22 6 -66 19 -98 29 -31 11 -68 19 -81 19 -13 0 -41 6 -62 14 -22 7
-64 17 -94 20 -30 4 -91 14 -135 21 -166 29 -328 37 -610 31 -311 -6 -378 -9
-480 -25 -38 -6 -108 -16 -155 -21 -47 -6 -93 -13 -102 -16 -10 -3 -71 -14
-135 -24 -65 -10 -149 -26 -188 -34 -38 -9 -84 -16 -101 -16 -17 0 -62 -6
-100 -14 -38 -8 -136 -26 -219 -40 -82 -15 -186 -33 -230 -41 -44 -8 -102 -17
-130 -21 -27 -3 -78 -13 -113 -20 -35 -8 -93 -19 -130 -24 -37 -5 -121 -19
-187 -30 -187 -33 -402 -70 -490 -85 -44 -7 -147 -25 -230 -40 -82 -15 -186
-33 -230 -40 -98 -16 -236 -39 -375 -64 -58 -11 -150 -27 -205 -36 -55 -9
-136 -23 -180 -31 -44 -9 -118 -22 -165 -29 -122 -20 -201 -33 -315 -56 -55
-10 -131 -23 -170 -29 -75 -10 -213 -33 -445 -75 -80 -14 -183 -32 -230 -40
-203 -33 -280 -46 -350 -60 -140 -26 -305 -55 -355 -61 -27 -3 -66 -10 -85
-15 -19 -4 -78 -15 -130 -24 -52 -8 -122 -20 -155 -25 -33 -6 -114 -20 -180
-31 -147 -24 -155 -27 -155 -44 0 -8 39 -49 88 -93 129 -118 301 -269 379
-334 37 -31 100 -83 138 -116 516 -435 1180 -903 1860 -1312 97 -58 121 -72
460 -262 201 -112 631 -332 850 -434 214 -100 360 -167 395 -179 19 -8 73 -30
120 -50 126 -54 488 -200 540 -218 25 -9 97 -35 160 -57 158 -57 588 -199 755
-249 301 -91 555 -159 820 -221 197 -46 271 -63 430 -95 94 -19 199 -41 235
-49 212 -47 936 -157 1220 -186 58 -6 134 -15 170 -20 36 -5 76 -8 90 -8 91 2
263 -16 310 -32 52 -18 98 -19 935 -16 584 2 910 7 970 15 50 6 137 15 195 20
58 5 150 14 205 20 55 5 154 15 220 21 128 11 404 43 520 60 179 26 457 72
520 85 39 8 88 17 110 21 47 7 203 38 295 59 36 8 97 21 135 29 118 23 371 83
555 131 96 25 202 53 235 61 273 67 1052 323 1375 450 63 25 131 52 150 59 34
14 256 105 355 147 154 65 450 200 600 275 212 107 513 262 620 321 55 30 114
62 130 70 104 52 513 294 655 387 52 34 127 82 165 106 155 97 426 278 563
376 48 34 121 86 161 115 81 57 344 254 401 300 19 15 76 60 125 99 153 121
278 223 311 254 18 17 65 57 105 90 86 71 183 156 259 229 30 28 74 67 98 85
23 18 42 39 42 47 0 15 -4 16 -135 38 -49 8 -128 22 -175 31 -47 9 -125 22
-175 30 -49 8 -153 25 -230 39 -77 14 -169 30 -205 36 -108 17 -241 41 -320
57 -41 8 -118 21 -170 29 -52 7 -158 25 -235 39 -77 14 -183 32 -235 40 -52 8
-117 20 -145 25 -27 5 -117 21 -200 35 -82 14 -175 30 -205 36 -30 6 -95 17
-145 25 -49 7 -112 18 -140 24 -27 6 -93 17 -145 25 -153 24 -263 43 -290 49
-14 4 -81 16 -150 27 -69 12 -159 27 -200 34 -41 7 -133 22 -205 34 -71 12
-146 26 -165 31 -19 5 -69 14 -110 19 -80 10 -190 29 -360 61 -58 10 -150 26
-205 35 -55 9 -145 24 -200 35 -120 23 -276 49 -365 61 -36 5 -92 15 -125 23
-33 8 -80 17 -105 21 -71 9 -228 35 -310 51 -41 9 -132 24 -201 34 -69 11
-132 22 -140 25 -8 2 -50 9 -94 15 -44 5 -116 14 -160 20 -152 21 -241 25
-580 24 -262 -1 -363 -5 -440 -17 -55 -9 -131 -21 -170 -27 -156 -23 -450
-107 -605 -173 -342 -144 -592 -307 -827 -539 -219 -215 -383 -454 -488 -708
-39 -95 -50 -113 -79 -130 -24 -14 -27 -13 -48 8 -22 22 -23 26 -22 265 1 223
3 252 28 369 63 297 147 500 345 828 81 135 154 241 268 390 126 163 165 213
238 295 39 44 83 96 99 115 91 115 470 503 1512 1548 l1172 1175 43 -6 c24 -3
78 -12 119 -21 41 -8 134 -24 205 -36 72 -11 171 -30 220 -41 50 -10 106 -19
125 -19 20 0 60 -6 90 -14 30 -8 84 -17 120 -21 36 -4 88 -13 115 -20 28 -8
79 -17 115 -20 36 -4 88 -13 115 -20 28 -8 75 -16 105 -20 30 -3 89 -13 130
-20 41 -8 104 -19 140 -25 36 -6 88 -14 115 -20 28 -5 84 -14 125 -20 41 -6
104 -17 140 -25 36 -8 126 -23 200 -35 132 -20 261 -43 465 -80 55 -10 123
-21 150 -25 28 -3 70 -10 95 -15 53 -10 235 -42 370 -65 52 -9 147 -25 210
-36 63 -11 156 -26 205 -34 50 -7 113 -18 140 -24 96 -20 231 -44 315 -56 119
-18 261 -42 355 -62 l80 -16 1220 -1219 c671 -670 1226 -1218 1232 -1218 7 0
30 24 52 53 22 28 99 126 171 217 141 176 313 401 395 515 28 39 93 129 145
200 150 207 441 651 611 930 228 376 547 978 749 1415 34 74 77 167 95 205 32
68 46 102 158 370 139 336 229 580 370 1010 91 278 101 313 172 560 25 88 50
174 55 190 46 147 175 708 230 1000 53 283 68 368 85 475 8 58 22 150 31 205
8 55 19 127 24 160 18 108 49 358 61 480 6 66 15 156 19 200 5 44 12 127 15
185 4 61 14 122 23 145 15 36 17 129 20 988 2 860 0 951 -14 985 -9 20 -21 84
-25 142 -5 58 -13 146 -18 195 -5 50 -16 168 -25 263 -8 95 -17 176 -20 180
-2 4 -9 57 -15 117 -7 61 -19 148 -27 195 -8 47 -19 119 -24 160 -5 41 -16
113 -25 160 -8 47 -24 139 -36 205 -179 1024 -456 1976 -871 2995 -154 379
-421 948 -598 1275 -71 131 -124 230 -147 275 -13 25 -41 74 -62 110 -22 36
-64 108 -93 160 -122 214 -293 489 -447 719 -268 400 -341 501 -644 894 -103
133 -154 197 -330 411 -32 39 -77 94 -99 121 -137 170 -537 592 -900 950 -366
362 -429 422 -465 448 -17 12 -76 63 -131 112 -322 290 -728 609 -1251 983
-177 126 -556 374 -846 552 -126 77 -418 245 -545 312 -232 124 -423 225 -470
249 -90 45 -412 199 -417 199 -2 0 -37 15 -76 34 -111 53 -243 111 -342 152
-49 20 -133 54 -185 76 -52 21 -117 47 -145 57 -27 10 -79 31 -115 46 -70 30
-193 75 -440 161 -170 60 -179 63 -635 205 -160 49 -669 188 -770 209 -22 5
-112 25 -200 45 -204 47 -365 82 -435 95 -30 5 -104 19 -165 31 -132 25 -391
66 -495 79 -41 5 -97 13 -125 18 -114 23 -307 47 -560 72 -55 5 -145 14 -200
21 -55 6 -156 14 -225 18 -86 5 -135 12 -157 24 -29 15 -103 17 -900 16 -815
-1 -871 -3 -913 -20z m2884 -2958 c15 -17 16 -86 13 -907 -3 -564 -8 -915 -15
-959 -11 -76 -51 -234 -77 -305 -37 -104 -106 -269 -136 -325 -135 -255 -348
-575 -513 -770 -28 -33 -69 -82 -90 -109 -22 -26 -69 -81 -105 -121 -36 -40
-113 -126 -171 -191 -178 -199 -315 -337 -2790 -2818 -1323 -1326 -2428 -2436
-2455 -2466 -197 -216 -262 -288 -345 -383 -52 -60 -108 -126 -125 -147 -16
-21 -86 -107 -155 -191 -214 -263 -415 -551 -563 -810 -66 -116 -188 -370
-231 -484 -15 -38 -32 -81 -38 -95 -5 -14 -16 -45 -23 -70 -7 -25 -22 -81 -34
-124 -36 -131 -70 -317 -81 -448 -6 -67 -15 -153 -20 -190 -6 -37 -10 -116
-10 -177 0 -86 -3 -113 -16 -125 -19 -19 -25 -20 -48 -3 -48 35 -127 345 -160
627 -41 352 -44 450 -26 673 32 383 68 588 163 937 37 136 55 192 114 350 14
36 31 83 38 105 44 134 265 579 395 796 146 243 327 502 489 702 53 65 111
137 129 160 105 133 583 617 3017 3056 1480 1483 2709 2718 2730 2746 22 27
65 76 96 110 117 126 327 399 403 523 16 26 41 65 56 87 117 173 302 592 369
835 10 36 28 101 41 145 12 44 28 107 35 140 27 129 48 191 73 218 30 32 43
34 66 8z m4 -2703 c9 -9 12 -224 12 -907 0 -855 -1 -901 -20 -994 -45 -224
-107 -398 -214 -607 -89 -172 -106 -201 -200 -344 -161 -244 -478 -638 -717
-890 -47 -50 -1109 -1118 -2360 -2372 -2091 -2098 -2662 -2677 -2736 -2776
-16 -20 -58 -69 -94 -110 -72 -80 -242 -291 -330 -408 -294 -394 -499 -763
-637 -1145 -43 -122 -50 -145 -92 -322 -47 -196 -73 -518 -51 -633 6 -30 15
-93 22 -140 13 -94 47 -235 78 -320 11 -30 31 -86 45 -125 27 -75 26 -99 -5
-115 -28 -16 -48 -1 -116 87 -173 226 -347 560 -408 783 -38 142 -75 316 -89
430 -18 140 -22 531 -7 602 6 24 19 110 31 191 21 151 54 290 116 497 40 136
79 237 184 490 43 102 231 465 293 565 186 299 229 364 378 564 374 502 255
378 3003 3132 2311 2316 2772 2783 2888 2928 24 29 62 76 86 105 76 91 267
349 308 414 135 218 277 504 339 682 76 221 109 329 156 524 24 101 51 189 62
202 20 26 56 31 75 12z m-5 -2726 c15 -16 17 -97 17 -873 1 -816 0 -860 -20
-979 -11 -69 -32 -163 -46 -210 -14 -47 -31 -105 -39 -130 -7 -25 -31 -86 -53
-136 -134 -304 -297 -562 -562 -893 -63 -79 -126 -158 -139 -175 -14 -17 -47
-56 -75 -87 -28 -30 -68 -75 -88 -100 -123 -146 -574 -603 -2414 -2448 -1128
-1131 -2078 -2089 -2110 -2130 -32 -41 -89 -112 -126 -158 -128 -160 -295
-421 -399 -623 -82 -160 -149 -333 -212 -550 -38 -129 -80 -495 -67 -575 5
-27 9 -78 9 -111 1 -67 38 -252 71 -354 32 -98 124 -283 185 -371 73 -107 123
-165 238 -280 53 -54 97 -105 97 -113 0 -22 -29 -46 -56 -46 -28 0 -96 32
-168 78 -28 18 -53 32 -57 32 -9 0 -128 81 -202 137 -139 106 -333 310 -453
477 -152 211 -281 488 -358 766 -69 252 -91 657 -49 900 8 47 18 112 23 145
12 90 51 231 117 425 54 156 134 340 196 449 131 227 195 332 250 406 158 213
198 265 238 310 25 27 60 70 79 95 18 25 1141 1155 2494 2511 2219 2223 2620
2629 2713 2751 15 20 64 81 108 136 98 122 157 203 221 305 27 43 64 101 82
130 31 48 163 310 205 404 77 175 168 472 238 772 22 95 43 131 77 131 11 0
26 -8 35 -18z m1946 -1902 c92 -46 226 -129 314 -193 90 -67 301 -269 369
-353 123 -152 252 -353 304 -472 14 -31 29 -64 34 -73 8 -15 47 -115 74 -189
23 -61 64 -221 87 -335 19 -91 23 -153 27 -360 5 -325 -13 -478 -92 -764 -132
-476 -438 -1008 -845 -1466 -58 -66 -646 -662 -1307 -1325 -660 -663 -1222
-1232 -1249 -1265 -27 -33 -72 -85 -100 -116 -197 -220 -395 -508 -558 -814
-30 -57 -97 -211 -141 -325 -67 -175 -87 -242 -151 -502 -25 -100 -47 -192
-50 -204 -9 -39 -45 -75 -73 -72 -54 6 -53 -18 -49 923 l4 870 27 120 c45 205
58 247 119 400 7 16 41 88 75 160 156 319 343 593 661 964 241 282 392 440
1271 1325 688 693 882 895 978 1020 15 19 54 70 88 113 129 166 270 394 372
603 39 80 77 163 85 185 8 22 29 76 45 120 46 122 100 333 119 465 4 30 7 159
7 285 0 216 -2 237 -27 340 -15 61 -32 121 -37 135 -95 254 -105 274 -210 420
-76 107 -141 183 -199 234 -61 55 -111 113 -111 132 0 52 51 57 139 14z m1466
-1836 c14 -9 41 -39 62 -68 266 -367 396 -653 469 -1036 37 -198 39 -220 39
-500 0 -340 -13 -445 -96 -790 -23 -92 -132 -428 -172 -525 -192 -470 -542
-1054 -882 -1472 -27 -34 -84 -103 -125 -154 -41 -51 -115 -138 -165 -192 -49
-55 -105 -119 -124 -141 -19 -23 -584 -592 -1255 -1266 -1490 -1494 -1622
-1635 -1898 -2025 -96 -136 -102 -146 -205 -330 -13 -22 -43 -83 -69 -135 -25
-52 -49 -102 -53 -110 -48 -92 -149 -381 -200 -575 -53 -201 -60 -228 -71
-287 -18 -95 -71 -136 -114 -89 -16 18 -17 79 -14 917 l4 899 26 110 c41 171
62 242 108 355 47 117 162 348 211 425 240 376 429 616 822 1044 78 85 576
590 1107 1122 1134 1138 1331 1342 1585 1639 310 362 542 694 739 1055 90 165
156 314 226 507 29 83 60 187 60 204 0 9 8 46 19 82 27 98 50 259 56 407 11
234 -24 480 -96 685 -63 180 -71 210 -65 236 7 28 35 32 71 8z m707 -2710 c37
-63 101 -343 133 -581 32 -236 40 -667 16 -848 -6 -38 -17 -126 -26 -195 -9
-69 -23 -152 -30 -185 -8 -33 -17 -78 -21 -100 -3 -22 -20 -92 -36 -155 -17
-63 -36 -137 -43 -165 -7 -27 -25 -84 -40 -125 -14 -41 -32 -95 -40 -120 -22
-72 -85 -241 -100 -269 -8 -14 -36 -78 -63 -141 -52 -120 -162 -339 -227 -450
-20 -36 -46 -81 -57 -100 -136 -239 -394 -601 -616 -864 -199 -235 -357 -398
-1555 -1597 l-1129 -1129 -691 2 -692 3 -3 22 c-2 14 12 45 37 81 23 32 41 61
41 65 0 13 284 389 394 522 264 318 402 460 1815 1881 1099 1104 1248 1257
1496 1539 58 66 129 147 158 180 176 197 517 655 653 875 126 204 260 470 336
665 70 181 141 457 158 615 6 58 16 125 21 149 5 24 9 65 9 90 -1 25 2 113 6
194 7 157 15 181 57 175 12 -2 29 -17 39 -34z m4878 -4646 c346 -39 615 -285
696 -636 12 -56 15 -103 12 -205 -5 -118 -9 -143 -41 -238 -44 -129 -81 -191
-171 -285 -119 -126 -247 -196 -434 -235 -166 -36 -375 -12 -524 59 -187 90
-337 256 -401 442 -36 108 -61 252 -54 319 21 194 26 212 90 351 72 154 237
312 392 373 68 27 250 66 305 65 25 0 83 -4 130 -10z m-9692 -3405 c24 -9 12
-42 -44 -120 -125 -174 -327 -547 -375 -693 -4 -14 -24 -70 -44 -125 -62 -172
-138 -440 -179 -637 -4 -15 -17 -39 -29 -54 -29 -33 -67 -28 -85 11 -15 33
-17 1540 -2 1580 5 14 20 30 32 35 23 9 701 12 726 3z"/>
<path d="M25470 9831 c-198 -37 -355 -136 -459 -289 -56 -84 -80 -145 -102
-262 -24 -132 -24 -175 0 -286 59 -271 216 -451 461 -528 72 -23 100 -26 214
-26 157 1 193 8 314 65 178 85 309 245 362 445 20 75 22 101 17 215 -7 169
-34 255 -119 382 -116 173 -319 281 -543 288 -55 2 -120 0 -145 -4z m305 -253
c62 -33 88 -60 116 -123 31 -68 30 -173 0 -234 -21 -41 -95 -121 -112 -121 -4
0 -13 -8 -18 -18 -12 -22 -16 -14 113 -227 96 -159 110 -197 80 -209 -33 -13
-112 -6 -132 12 -11 9 -64 94 -117 187 -53 94 -104 176 -113 183 -18 14 -100
16 -121 3 -11 -7 -13 -43 -12 -172 2 -201 -2 -213 -75 -217 -37 -2 -57 2 -73
15 l-22 18 1 455 c0 328 4 458 12 468 10 11 50 13 217 10 200 -3 207 -4 256
-30z"/>
<path d="M25476 9467 c-17 -13 -19 -26 -17 -143 2 -152 3 -154 101 -154 129 0
195 61 187 173 -3 51 -8 62 -40 94 -35 36 -38 37 -124 41 -66 3 -93 0 -107
-11z"/>
</g>
</svg>